# xmcd
#
# Track frame offsets:
#	150
#	16392
#	33128
#	48899
#	66989
#	85475
#	98349
#	114999
#	129429
#	143066
#	159089
#	168984
#
# Disc length: 2601 seconds
#
# Revision: 1
# Processed by: cddbd v1.5.2PL0 Copyright (c) Steve Scherf et al.
# Submitted via: audiograbber 1.82.02
#
DISCID=880a270c
DTITLE=Osborne Jones - Out of Blue Yonder
DYEAR=2012
DGENRE=Country
TTITLE0=Rhinstone heart
TTITLE1=Mysterious Ways
TTITLE2=Abandoned Me
TTITLE3=One Thing Leads To Another
TTITLE4=Ballad Of A Londoner
TTITLE5=And The Mississippi
TTITLE6=Love In A Recession
TTITLE7=The Bond
TTITLE8=I´m In Pieces
TTITLE9=Back In The Saddle
TTITLE10=Twelve Red Roses
TTITLE11=Die Sober
EXTD=
EXTT0=
EXTT1=
EXTT2=
EXTT3=
EXTT4=
EXTT5=
EXTT6=
EXTT7=
EXTT8=
EXTT9=
EXTT10=
EXTT11=
PLAYORDER=
